# xmcd
#
# Track frame offsets: 
#        150
#        8457
#        27419
#        32209
#        50858
#        65435
#        68088
#        83595
#        86364
#        103027
#        108531
#        124478
#        128736
#        142267
#        158212
#        161989
#
# Disc length: 2536 seconds
#
# Revision: 0
# Processed by: cddbd v1.5.2PL0 Copyright (c) Steve Scherf et al.
# Submitted via: ExactAudioCopy v0.99pb5
#
DISCID=df09e610
DTITLE=Glen Campbell - Ghost On The Canvas
DYEAR=2011
DGENRE=Country
TTITLE0=A Better Place
TTITLE1=Ghost on the Canvas
TTITLE2=The Billstown Crossroads
TTITLE3=A Thousand Lifetimes
TTITLE4=It's Your Amazing Grace
TTITLE5=Second Street North
TTITLE6=In My Arms
TTITLE7=My 21st, 1969
TTITLE8=Nothing But the Whole Wide World
TTITLE9=Wild and Waste
TTITLE10=Hold on Hope
TTITLE11=Valley of the Son
TTITLE12=Any Trouble
TTITLE13=Strong
TTITLE14=The Rest Is Silence
TTITLE15=There's No Me ... Without You
EXTD=
EXTT0=
EXTT1=
EXTT2=
EXTT3=
EXTT4=
EXTT5=
EXTT6=
EXTT7=
EXTT8=
EXTT9=
EXTT10=
EXTT11=
EXTT12=
EXTT13=
EXTT14=
EXTT15=
PLAYORDER=
